# xmcd CD database file
#
# Track frame offsets:
#	150
#	17685
#	34772
#	54210
#	70957
#	87862
#	107952
#	123632
#	141600
#	161007
#	176717
#	195930
#	214605
#	231130
#	249740
#	267085
#	286355
#
# Disc length: 3952 seconds
#
# Revision: 1
# Processed by: cddbd v1.5.1PL0 Copyright (c) Steve Scherf et al.
# Submitted via: CDex 1.50Beta3
#
DISCID=f70f6e11
DTITLE=Sax Dreams - Sax Dreams
DYEAR=2001
DGENRE=Blues
TTITLE0=Can You Feel The Love Tonight
TTITLE1=Still Believe
TTITLE2=Nóubliez Jamais
TTITLE3=The Power Of Love
TTITLE4=Into The Great Wide Open
TTITLE5=Because You Loved Me
TTITLE6=2 Become 1
TTITLE7=Back For Good
TTITLE8=I'll Be There
TTITLE9=I Want It That Way
TTITLE10=Power Of Love
TTITLE11=Tink Twice
TTITLE12=She's All I Ever Had
TTITLE13=All By Myself
TTITLE14=Without You
TTITLE15=No Matter What
TTITLE16=Amazing Grace
EXTD=YEAR: 2001
EXTT0=
EXTT1=
EXTT2=
EXTT3=
EXTT4=
EXTT5=
EXTT6=
EXTT7=
EXTT8=
EXTT9=
EXTT10=
EXTT11=
EXTT12=
EXTT13=
EXTT14=
EXTT15=
EXTT16=
PLAYORDER=
